# xmcd
#
# Track frame offsets: 
#        150
#        13948
#        31543
#        51983
#        68780
#        86708
#        109203
#        127998
#        148245
#
# Disc length: 2240 seconds
#
# Revision: 2
# Processed by: cddbd v1.4PL0 Copyright (c) Steve Scherf et al.
# Submitted via: ExactAudioCopy v0.90b4
#
DISCID=7b08be09
DTITLE=Ronnie Milsap - Heart And Soul
DYEAR=1900
DGENRE=Country
TTITLE0=Snap Your Fingers
TTITLE1=Button Off My Shirt
TTITLE2=Where Do The Nights Go
TTITLE3=The Truth Is, I've Been Known To Lie
TTITLE4=Make No Mistake, She's Mine (Duet With Kenny Rogers)
TTITLE5=One Night
TTITLE6=Somebody Like You
TTITLE7=This Time Last Year
TTITLE8=Earthquake
EXTD=
EXTT0=
EXTT1=
EXTT2=
EXTT3=
EXTT4=
EXTT5=
EXTT6=
EXTT7=
EXTT8=
PLAYORDER=
